<svg width="14" height="14" viewBox="0 0 14 14" fill="none" xmlns="http://www.w3.org/2000/svg">
<g clip-path="url(#clip0_5637_1674)">
<path d="M10.7188 0H3.28125C1.46907 0 0 1.46907 0 3.28125V10.7188C0 12.5309 1.46907 14 3.28125 14H10.7188C12.5309 14 14 12.5309 14 10.7188V3.28125C14 1.46907 12.5309 0 10.7188 0Z" fill="white"/>
<path d="M10.7188 0H3.28125C1.46907 0 0 1.46907 0 3.28125V10.7188C0 12.5309 1.46907 14 3.28125 14H10.7188C12.5309 14 14 12.5309 14 10.7188V3.28125C14 1.46907 12.5309 0 10.7188 0Z" fill="#0A66C2"/>
<path d="M10.1016 11.9046H11.7023C11.7603 11.9046 11.8159 11.8816 11.857 11.8406C11.898 11.7996 11.921 11.744 11.9211 11.686L11.9219 8.30397C11.9219 6.5363 11.541 5.17759 9.47527 5.17759C8.69001 5.14839 7.94948 5.55319 7.54988 6.22912C7.54793 6.23241 7.54496 6.23496 7.54141 6.2364C7.53787 6.23783 7.53396 6.23807 7.53027 6.23707C7.52658 6.23607 7.52332 6.23389 7.52099 6.23087C7.51866 6.22785 7.51738 6.22414 7.51734 6.22032V5.55953C7.51734 5.50152 7.4943 5.44587 7.45327 5.40485C7.41225 5.36383 7.35661 5.34078 7.29859 5.34078H5.77954C5.72152 5.34078 5.66588 5.36383 5.62486 5.40485C5.58384 5.44587 5.56079 5.50152 5.56079 5.55953V11.6856C5.56079 11.7436 5.58384 11.7993 5.62486 11.8403C5.66588 11.8813 5.72152 11.9044 5.77954 11.9044H7.38013C7.43815 11.9044 7.49379 11.8813 7.53481 11.8403C7.57584 11.7993 7.59888 11.7436 7.59888 11.6856V8.65741C7.59888 7.80117 7.7613 6.97194 8.82284 6.97194C9.86929 6.97194 9.88285 7.95173 9.88285 8.71287V11.6859C9.88285 11.7439 9.9059 11.7996 9.94692 11.8406C9.98795 11.8816 10.0436 11.9046 10.1016 11.9046ZM2.07812 3.26091C2.07812 3.90972 2.61226 4.44358 3.26112 4.44358C3.90983 4.44352 4.44363 3.90934 4.44363 3.26063C4.44352 2.61193 3.90966 2.07812 3.26091 2.07812C2.61198 2.07812 2.07812 2.61209 2.07812 3.26091ZM2.4587 11.9046H4.06142C4.11944 11.9046 4.17508 11.8816 4.2161 11.8406C4.25713 11.7996 4.28017 11.7439 4.28017 11.6859V5.55953C4.28017 5.50152 4.25713 5.44587 4.2161 5.40485C4.17508 5.36383 4.11944 5.34078 4.06142 5.34078H2.4587C2.40068 5.34078 2.34504 5.36383 2.30402 5.40485C2.26299 5.44587 2.23995 5.50152 2.23995 5.55953V11.6859C2.23995 11.7439 2.26299 11.7996 2.30402 11.8406C2.34504 11.8816 2.40068 11.9046 2.4587 11.9046Z" fill="white"/>
</g>
<defs>
<clipPath id="clip0_5637_1674">
<rect width="14" height="14" fill="white"/>
</clipPath>
</defs>
</svg>
